<?xml version="1.0" encoding="UTF-8" standalone="no"?>
<svg
   width="100"
   height="100"
   viewBox="0 0 100 100"
   fill="none"
   version="1.1"
   id="svg12"
   sodipodi:docname="lsi-logo.svg"
   inkscape:version="1.2.1 (9c6d41e410, 2022-07-14)"
   xmlns:inkscape="http://www.inkscape.org/namespaces/inkscape"
   xmlns:sodipodi="http://sodipodi.sourceforge.net/DTD/sodipodi-0.dtd"
   xmlns="http://www.w3.org/2000/svg"
   xmlns:svg="http://www.w3.org/2000/svg">
  <defs
     id="defs16" />
  <sodipodi:namedview
     id="namedview14"
     pagecolor="#ffffff"
     bordercolor="#000000"
     borderopacity="0.25"
     inkscape:showpageshadow="2"
     inkscape:pageopacity="0.0"
     inkscape:pagecheckerboard="0"
     inkscape:deskcolor="#d1d1d1"
     showgrid="false"
     inkscape:zoom="10.27"
     inkscape:cx="26.923077"
     inkscape:cy="49.951315"
     inkscape:window-width="3072"
     inkscape:window-height="1691"
     inkscape:window-x="0"
     inkscape:window-y="0"
     inkscape:window-maximized="1"
     inkscape:current-layer="svg12" />
  <path
     d="M50 100C77.6142 100 100 77.6142 100 50C100 22.3858 77.6142 0 50 0C22.3858 0 0 22.3858 0 50C0 77.6142 22.3858 100 50 100Z"
     fill="#AB2328"
     id="path2"
     style="fill:#333333;fill-opacity:1" />
  <path
     d="M10.8148 86.4639C15.6612 83.7214 34.2968 74.719 82.6206 65.7493C82.6206 65.7493 85.5185 65.7339 83.6831 62.1764C83.6831 62.1764 82.4269 58.4768 77.5019 59.361C77.5019 59.361 34.7111 64.8805 14.1384 75.2157C14.1384 75.2157 32.1738 44.4996 44.1507 13.6876C44.1507 13.6876 45.403 10.6459 42.7948 11.4668C42.7948 11.4668 39.3177 12.2396 35.904 14.5583C35.904 14.5583 34.9067 15.266 34.4867 16.3611C34.4867 16.3611 15.8491 60.1837 4.21167 77.6188C4.21167 77.6169 6.96952 82.469 10.8148 86.4639Z"
     fill="white"
     id="path4" />
  <path
     d="M85.7103 19.1917C85.7103 19.1917 86.7728 16.4876 83.0061 17.3564C83.0061 17.3564 46.3466 29.2182 40.2153 33.0999C40.2153 33.0999 33.0349 37.1255 40.2153 41.2143L59.2441 49.9079L30.2674 56.9598C30.2674 56.9598 28.8425 57.1611 28.0466 59.1806L26.1153 63.141C26.1153 63.141 24.5216 66.0062 28.9173 64.8804L69.7749 55.3181C69.7749 55.3181 75.329 54.691 75.377 50.1016C75.4307 44.9809 64.0751 39.96 52.7752 35.806L81.656 25.5666C81.656 25.5666 84.2163 24.9702 84.9393 22.2833L85.7103 19.1917Z"
     fill="white"
     id="path6" />
  <path
     d="M95.8517 22.6747C95.4144 22.8454 95.0328 22.9605 94.3059 23.1522C94.3059 23.1522 90.2497 24.3106 87.7373 24.6002C87.7373 24.6002 85.8463 25.2273 86.8685 22.7648L88.3165 17.8379C88.3165 17.8379 88.5045 16.2327 90.9612 15.6228C90.9612 15.6228 93.0862 17.4601 96.0109 22.6383L95.8517 22.6747Z"
     fill="white"
     id="path8" />
  <path
     d="M93.631 26.6291C93.631 26.6291 89.0914 27.2735 86.6635 28.2708C86.6635 28.2708 85.0985 28.7867 84.4944 30.6853C84.4944 30.6853 78.177 48.7476 77.8874 51.3558C77.8874 51.3558 77.0014 54.269 81.1708 53.9641C81.1708 53.9641 84.8281 54.06 85.8484 51.7432L95.1767 28.8519C95.1767 28.85 96.5729 26.0979 93.631 26.6291Z"
     fill="white"
     id="path10" />
</svg>
